# xmcd CD database file
#
# Track frame offsets:
#	150
#	26737
#	43296
#	56552
#	83349
#	99994
#	116149
#	138915
#	154154
#	166890
#	195779
#	222601
#	240487
#	261645
#	276247
#	293198
#	309926
#	329243
#
# Disc length: 4598 seconds
#
# Revision: 1
# Processed by: cddbd v1.5PL3 Copyright (c) Steve Scherf et al.
# Submitted via: CDex 1.51
#
DISCID=0a11f412
DTITLE=Andrew - Kaitlin's Picks
DYEAR=1900
DGENRE=Country
TTITLE0=Cross Canadian Ragweed - Boys from Oklahoma
TTITLE1=Cross Canadian Ragweed - Maybe i miss your body
TTITLE2=PourMeAVacation
TTITLE3=Pat Green - Crazy
TTITLE4=The Great Divide - Round That Bend
TTITLE5=BreakInTheStorm
TTITLE6=Pat Green - Carry On
TTITLE7=Pat Green - We've All Got Our Reasons
TTITLE8=DaysGo
TTITLE9=Gin and Juice - Country Version
TTITLE10=Cross Canadian Ragweed - Bang My Head
TTITLE11=Pat Green - Wave On Wave
TTITLE12=Pat Green and Cory Morrow - It's A Great Day To Be Alive
TTITLE13=SanIsabella
TTITLE14=Pat Green - Three Days
TTITLE15=ratherhave
TTITLE16=Cross Canadian Ragweed - Constantly
TTITLE17=Pat Green and Cory Morrow - Stuck In The Middle With You
EXTD=
EXTT0=
EXTT1=
EXTT2=
EXTT3=
EXTT4=
EXTT5=
EXTT6=
EXTT7=
EXTT8=
EXTT9=
EXTT10=
EXTT11=
EXTT12=
EXTT13=
EXTT14=
EXTT15=
EXTT16=
EXTT17=
PLAYORDER=
